<svg id="Capa_1" enable-background="new 0 0 510.089 510.089" height="512" viewBox="0 0 510.089 510.089" width="512" xmlns="http://www.w3.org/2000/svg"><g><g><g><g><path d="m209.917 7.5h60.008v45.192h-60.008z" fill="#a7eed4"/></g><g><path d="m232.577 30.033v-22.533h-22.66v45.192h60.008v-22.659z" fill="#71e4bf"/></g><g><path d="m74.861 157.292h60.008v45.192h-60.008z" fill="#faef93"/></g><g><path d="m374.822 7.5h60.008v45.192h-60.008z" fill="#a7eed4"/></g><g><path d="m97.521 179.825v-22.533h-22.66v45.192h60.008v-22.659z" fill="#e8ab4c"/></g><g><path d="m397.33 30.033v-22.533h-22.508v45.192h60.008v-22.659z" fill="#71e4bf"/></g><g><path d="m44.814 202.239h285.016v149.968h-285.016z" fill="#faef93"/></g><g><path d="m44.814 352.621h285.016v149.968h-285.016z" fill="#f35173"/></g><g><path d="m66.939 329.393v-127.154h-22.125v149.969h285.016v-22.815z" fill="#e8ab4c"/></g><g><path d="m66.939 479.531v-127.153h-22.125v149.968h285.016v-22.815z" fill="#ec1646"/></g><g><path d="m180.259 52.692h285.016v149.968h-285.016z" fill="#a7eed4"/></g><g><path d="m202.385 179.846v-127.154h-22.126v149.968h285.016v-22.814z" fill="#71e4bf"/></g><g><path d="m202.417 74.862h15v15h-15z" fill="#fff"/></g><g><path d="m202.417 104.862h15v15h-15z" fill="#fff"/></g><g><path d="m67.361 224.862h15v15h-15z" fill="#fff"/></g><g><path d="m67.361 254.862h15v15h-15z" fill="#fff"/></g><g><path d="m67.361 374.915h15v15h-15z" fill="#fff"/></g><g><path d="m67.361 404.915h15v15h-15z" fill="#fff"/></g></g></g><g><path d="m262.33 495.089h15v15h-15z"/><path d="m472.775 45.192h-30.445v-45.192h-30v15h15v30.192h-45.008v-30.192h15.008v-15h-30.008v45.192h-89.896v-45.192h-75.008v45.192h-29.658v149.712h-30.39v-45.032h-75.009v45.032h-30.04v89.958h15v-74.702h270.016v134.712h-270.015v-45.011h-15l-.008 210.227h210.016v-15h-195.017v-134.967h270.017v134.968h-30v15h45l.008-299.929h135.438v-164.968zm-390.414 119.681h45.008v30.032h-45.008zm135.056-149.873h45.008v30.192h-45.008zm240.358 180.16-270.016-.256v-134.712h270.016z"/><path d="m322.337 93.377v86.485h15v-104.946h-17.404l-25.451 24.357 10.371 10.837z"/><path d="m217.617 404.862c-1.054-39.959-59.548-39.931-60.59 0h15c0-8.434 6.861-15.295 15.295-15.295s15.295 6.861 15.295 15.295c-.169 8.601-10.907 14.694-19.141 16.49v12.162c8.728 1.39 18.745 6.096 19.141 16.348 0 8.434-6.861 15.295-15.295 15.295s-15.295-6.861-15.295-15.295h-15c0 16.705 13.59 30.295 30.295 30.295 28.106.285 41.26-36.395 18.655-53.186 6.65-5.503 11.64-13.314 11.64-22.109z"/><path d="m218.013 255.408c-1.385-40.604-58.994-40.83-60.574-.546h15c.646-20.393 30.175-20.116 30.574.547 0 7.443-2.766 14.568-7.786 20.063l-36.996 40.482v13.919h59.495v-15h-38.187l26.76-29.282c7.554-8.266 11.714-18.986 11.714-30.183z"/></g></g></svg>